<svg xmlns="http://www.w3.org/2000/svg" width="512" height="512" viewBox="0 0 468.062 468.062"><path d="M431.38.222H36.68C16.457.222 0 16.672 0 36.895v394.268c0 20.22 16.458 36.677 36.68 36.677h394.7c20.227 0 36.682-16.456 36.682-36.677V36.895c0-20.23-16.456-36.673-36.683-36.673zm-24.86 41.744c8.688 0 15.722 7.04 15.722 15.72 0 8.683-7.033 15.717-15.723 15.717-8.69 0-15.724-7.04-15.724-15.717 0-8.68 7.034-15.72 15.723-15.72zm-56.33 0c8.687 0 15.722 7.04 15.722 15.72 0 8.683-7.034 15.717-15.723 15.717-8.685 0-15.712-7.04-15.712-15.717 0-8.68 7.028-15.72 15.71-15.72zM262.277 425.92H41.913V112.427h220.365V425.92zm163.87 0H278.42V112.427h147.73V425.92zm-16.59-222.155H297.582V134.16h111.974v69.605zm0 96.84H297.582v-69.604h111.974v69.606zm0 98.357H297.582v-69.605h111.974v69.605z" fill="#FFF"/></svg>