<svg xmlns="http://www.w3.org/2000/svg" class="svg" viewBox="0 0 57.613 57.613">
    <g class="svcolor-">
        <path d="M51.67 37.508c-2.71 1.83-5.914 3.848-9.334 3.183-1.744-.34-3.104-1.45-4.203-2.832.365-1.676.107-3.518-.674-5.216-.403-.876-.843-1.726-1.3-2.567.432-.04.862-.096 1.297-.172.188-.033.35-.088.5-.154 2.04 1.073 4.545 1.146 6.692-.11 3.186-1.87 4.448-6.262 2.46-9.463-1.622-2.62-3.252-5.238-4.877-7.858-1.983-3.2-6.147-4.403-9.46-2.462-1.054.617-1.892 1.513-2.476 2.547-1.665.402-3.247 1.073-4.574 2.213-.474.408-.875.857-1.235 1.33-1.63-.482-3.414-.34-5.162.684-.16.094-.316.2-.468.312-.294-.06-.6-.078-.91-.04-5.19.617-10.252 1.61-15.174 3.398-4.888 1.773-2.78 9.632 2.16 7.84 3.706-1.346 7.532-2.32 11.43-2.896.14.292.3.58.5.848 2.76 3.682 5.48 7.382 7.625 11.443-4.994 3.215-9.83 6.66-14.557 10.274-4.104 3.14-.063 10.207 4.103 7.022 5.5-4.207 11.147-8.184 17.018-11.832.3.016.6.008.896-.01 2.137 2.56 4.81 4.56 8.223 5.543 5.43 1.564 11.19-1.017 15.6-4 4.315-2.923.253-9.97-4.103-7.025zM33.76 26.064c-1.56-2.385-3.255-4.683-4.972-6.97-.236-.317-.492-.612-.757-.893.413-.443.898-.812 1.44-1.112.14.773.41 1.53.843 2.228 1.408 2.268 2.814 4.536 4.225 6.804-.264-.005-.52-.027-.78-.056z" />
        <circle cx="16.186" cy="8.614" r="6.64" />
    </g>
</svg>