<svg xmlns="http://www.w3.org/2000/svg" class="svg" viewBox="0 0 503.891 503.891">
    <path class="svcolor-" d="M33.1 168.01h71.387c74.215 0 79.98-46.28 79.98-60.465.01-12.758-4.75-24.358-13.403-32.692-11.012-10.584-27.833-15.956-50.017-15.956H52.565c-3.962 0-7.395 2.778-8.21 6.664l-19.472 92.33c-.52 2.475.1 5.052 1.704 7.016 1.587 1.963 3.98 3.105 6.514 3.105zM238.97 335.88H170.46c-3.97 0-7.395 2.778-8.217 6.664l-19.464 92.328c-.52 2.476.102 5.053 1.696 7.017 1.595 1.963 3.987 3.105 6.522 3.105h71.353c74.224 0 80-46.198 80-60.357-.002-11.44-4.576-48.758-63.38-48.758zM159.773 241.863c0-11.415-4.574-48.674-63.438-48.674H27.862c-3.962 0-7.395 2.777-8.21 6.663L.18 292.183c-.52 2.475.1 5.052 1.695 7.016 1.595 1.963 3.987 3.105 6.522 3.105h71.36c74.25 0 80.016-46.265 80.016-60.442zM415.273 285.52h-68.448c-3.903 0-7.294 2.685-8.175 6.496l-19.473 83.934c-.588 2.493.008 5.12 1.595 7.118 1.603 2.006 4.02 3.173 6.572 3.173h71.36c69.608 0 80.007-35.252 80.007-56.26 0-16.612-8.242-44.46-63.437-44.46zM440.453 142.83h-68.45c-3.902 0-7.293 2.687-8.174 6.498l-19.474 83.934c-.588 2.493.008 5.12 1.595 7.118 1.604 2.006 4.02 3.173 6.573 3.173h71.36c69.608 0 80.007-35.252 80.007-56.26 0-16.613-8.242-44.462-63.437-44.462zM265.42 193.19h-68.465c-3.97 0-7.395 2.78-8.217 6.657l-19.498 92.328c-.52 2.476.1 5.06 1.695 7.025 1.595 1.964 3.987 3.106 6.522 3.106h71.395c74.215 0 79.99-46.265 79.99-60.44 0-11.425-4.575-48.675-63.422-48.675zM202.2 168.01h71.343c74.24 0 80.006-46.28 80.006-60.457 0-11.415-4.575-48.657-63.397-48.657h-68.5c-3.96 0-7.394 2.778-8.208 6.664l-19.464 92.328c-.52 2.476.102 5.053 1.705 7.017 1.587 1.964 3.98 3.106 6.514 3.106z" />
</svg>