<svg xmlns="http://www.w3.org/2000/svg" class="svg" viewBox="0 0 533.333 533.333">
    <path class="svcolor-" d="M200 100c128.867 0 233.333 104.468 233.333 233.333h-50c0-48.97-19.07-95.01-53.697-129.636C295.01 169.07 248.97 150 200 150v-50zm0-100c184.094 0 333.333 149.24 333.333 333.333h-50c0-38.27-7.484-75.372-22.246-110.27-14.267-33.733-34.703-64.04-60.74-90.077-26.038-26.038-56.344-46.474-90.077-60.742C275.373 57.484 238.272 50 200 50V0zm99.162 234.17c22.79 22.79 34.164 52.66 34.15 82.527C300 366.695 300 433.333 300 433.333c-133.333 0-233.333 100-233.333 100l-7.292-7.29-12.047-12.05 147.7-147.696c1.622.24 3.28.37 4.972.37 18.41 0 33.333-14.925 33.333-33.334S218.41 300 200 300s-33.333 14.924-33.333 33.333c0 1.69.128 3.352.37 4.973L19.34 486.006 0 466.666s100-100 100-233.332c0 0 66.666 0 116.666-33.333 29.858 0 59.715 11.39 82.496 34.17z" />
</svg>