<svg xmlns="http://www.w3.org/2000/svg" class="svg" viewBox="0 0 70.07 70.07">
    <path class="svcolor-" d="M65.094 32.195h-7.916c-2.064 0-3.738 1.674-3.738 3.745v.406c0 2.073 1.674 3.748 3.74 3.748H65.095c2.068 0 3.747-1.682 3.747-3.748l-.003-.41c.004-2.067-1.675-3.74-3.743-3.74z" />
    <path class="svcolor-" d="M65.098 22.852h-1.65V4.734C63.45 2.13 61.32 0 58.715 0h-31.24c-2.603 0-4.733 2.13-4.733 4.734v13c-6.3 3.56-12.8 7.282-12.813 7.29-3.528 1.453-8.697 6.138-8.697 17.2 0 .99.065 1.9.156 2.782.03.258.06.506.096.755.09.648.205 1.267.34 1.855.05.21.088.43.14.63.184.68.396 1.318.634 1.925.12.3.25.575.38.857.14.297.282.59.433.862.174.328.35.645.54.946.047.07.097.134.144.205 4.556 6.888 12.96 6.92 12.96 6.92h5.687v5.378c0 2.6 2.13 4.73 4.735 4.73h31.238c2.605 0 4.735-2.13 4.735-4.73v-6.56h.722v-.005h.92c2.072 0 3.75-1.675 3.747-3.746l.004-.408c-.003-2.07-1.678-3.74-3.746-3.74h-7.917c-2.068 0-3.738 1.675-3.738 3.742v.415c0 2.062 1.673 3.743 3.74 3.743h2.974v2.534h-34.12v-33.99c1.714-1.088 3.3-2.134 4.206-2.835 4.585-3.547 8.937-6.37 9.526-8.932.767-3.323-1.784-6.123-6.21-3.824-1.393.724-4.254 2.31-7.522 4.146V7.502l34.12.005V22.85H58.11v.004h-.928c-2.07 0-3.748 1.674-3.748 3.747v.407c0 2.072 1.68 3.742 3.743 3.742H65.095c2.067 0 3.742-1.675 3.742-3.743v-.417c.004-2.06-1.67-3.738-3.74-3.738zM43.09 62.976c1.312 0 2.37 1.06 2.37 2.368 0 1.312-1.06 2.367-2.37 2.367-1.307 0-2.363-1.057-2.363-2.366.002-1.305 1.06-2.368 2.363-2.368zm5.003-58.418h-9.996c-.314 0-.574-.255-.574-.57 0-.32.26-.575.574-.575h9.996c.314 0 .57.254.57.575 0 .314-.256.57-.57.57z" />
    <path class="svcolor-" d="M65.094 41.538h-7.916c-2.064 0-3.743 1.68-3.743 3.746v.41c0 2.07 1.675 3.743 3.743 3.743h7.914c2.07 0 3.74-1.674 3.746-3.743v-.41c0-2.067-1.67-3.746-3.744-3.746z" />
</svg>