<?xml version="1.0" encoding="utf-8"?>
<!--Generator: Adobe Illustrator 20.0.0, SVG Export Plug-In . SVG Version: 6.00 Build 0)  -->
<svg version="1.2" baseProfile="tiny" id="Layer_1" xmlns="http://www.w3.org/2000/svg" xmlns:xlink="http://www.w3.org/1999/xlink"
	 x="0px" y="0px" viewBox="0 0 480 150" overflow="scroll" xml:space="preserve">
<path fill="#2E3192" d="M477.048,27.685c-5.623-23.976-109.137-23.349-235.515,1.881C117.82,54.264,16.925,93.608,8.563,119.631
	c-0.397,1.236-0.589,2.443-0.561,3.616c0.615,25.867,106.166,25.865,235.755-0.006c129.59-25.871,234.145-67.813,233.53-93.68
	C477.273,28.919,477.19,28.294,477.048,27.685z M236.075,111.63c-96.522,19.269-175.139,19.271-175.597,0.004
	c-0.017-0.733,0.092-1.485,0.298-2.251c5.208-19.377,80.79-48.989,173.642-67.525c94.832-18.932,172.375-19.264,175.495-0.997
	c0.056,0.325,0.094,0.655,0.102,0.993C410.472,61.121,332.597,92.36,236.075,111.63z"/>
<path fill="#2E3192" d="M234.417,41.858c94.832-18.932,172.375-19.264,175.495-0.997l67.135-13.176
	c-5.623-23.976-109.137-23.349-235.515,1.881C117.82,54.264,16.925,93.608,8.563,119.631l52.212-10.247
	C65.984,90.007,141.566,60.395,234.417,41.858z"/>
<path fill="#ED1C24" d="M112.018,27.383L96.909,57.535H81.339l-13.591,64.196H32.714l13.657-64.196h-16.89l6.334-30.152H112.018z"/>
<path fill="#ED1C24" d="M157.59,45.015l-8.713,40.867h-18.859l0.941-4.172c-3.682,3.518-8.237,5.277-13.663,5.277
	c-4.254,0-7.636-1.268-10.145-3.804c-2.673-2.672-4.009-6.354-4.009-11.045c0-1.909,0.218-3.913,0.655-6.014
	c1.418-6.709,4.35-12.163,8.795-16.363c4.254-3.954,8.945-5.932,14.072-5.932c5.155,0,8.904,1.65,11.25,4.95l0.818-3.764H157.59z
	 M150.226,33.11l-4.377,7.036l-11.127-5.809l-13.663,5.809l-1.309-7.036l17.059-8.632L150.226,33.11z M133.372,64.61
	c0.109-0.573,0.164-1.104,0.164-1.596c0-2.618-1.173-3.927-3.518-3.927c-1.664,0-3.055,0.853-4.172,2.557
	c-1.119,1.705-1.677,3.444-1.677,5.216c0,2.51,1.2,3.764,3.6,3.764C130.631,70.623,132.499,68.619,133.372,64.61z M160.494,15.684
	L146.585,28.57l-6.954-4.091l11.822-14.318L160.494,15.684z"/>
<path fill="#ED1C24" d="M206.516,58.637l-5.809,27.245h-19.922l4.5-21.436c0.136-0.627,0.204-1.186,0.204-1.677
	c0-1.445-0.791-2.168-2.373-2.168c-2.019,0-3.355,1.609-4.009,4.827l-4.377,20.454h-19.922l6.791-31.99l20.945-11.168l-1.268,6.055
	c3.409-3.409,8.018-5.114,13.827-5.114c7.936,0,11.904,3.545,11.904,10.636C207.007,55.637,206.843,57.083,206.516,58.637z"/>
<path fill="#ED1C24" d="M299.381,46.069c-2.617,12.333-8.363,22.153-17.239,29.46c-8.877,7.307-19.164,10.96-30.861,10.96h-36.887
	l6.559-31.001h-7.456l3.924-18.275h7.456l6.503-30.889h37.448c9.567,0,17.219,2.775,22.956,8.325
	c5.736,5.55,8.605,12.885,8.605,22.004C300.39,39.716,300.054,42.856,299.381,46.069z M268.267,45.06
	c0.299-1.308,0.448-2.541,0.448-3.7c0-3.438-1.075-6.11-3.223-8.017c-2.15-1.906-4.831-2.859-8.044-2.859h-1.457l-1.515,6.727h8.297
	l-3.924,18.275h-8.241l-1.177,5.494h2.074C260.474,60.981,266.061,55.675,268.267,45.06z"/>
<path fill="none" d="M234.417,41.858C141.566,60.395,65.984,90.007,60.776,109.383l349.137-68.522
	C406.793,22.594,329.25,22.926,234.417,41.858z"/>
<path fill="none" d="M60.478,111.634c0.458,19.267,79.075,19.265,175.597-0.004c96.522-19.269,174.397-50.509,173.94-69.776
	c-0.008-0.337-0.046-0.667-0.102-0.993L60.776,109.383C60.57,110.149,60.46,110.901,60.478,111.634z"/>
<path fill="#2E3192" d="M409.913,40.861c0.056,0.325,0.094,0.655,0.102,0.993c0.458,19.267-77.418,50.506-173.94,69.776
	c-96.522,19.269-175.139,19.271-175.597,0.004c-0.017-0.733,0.092-1.485,0.298-2.251L8.563,119.631
	c-0.397,1.236-0.589,2.443-0.561,3.616c0.615,25.867,106.166,25.865,235.755-0.006s234.145-67.813,233.53-93.68
	c-0.015-0.641-0.098-1.266-0.24-1.875L409.913,40.861z"/>
<path fill="#ED1C24" d="M348.508,45.015l-8.714,40.867h-18.858l0.94-4.172c-3.681,3.518-8.236,5.277-13.663,5.277
	c-4.254,0-7.636-1.268-10.145-3.804c-2.673-2.672-4.008-6.354-4.008-11.045c0-1.909,0.218-3.913,0.654-6.014
	c1.419-6.709,4.35-12.163,8.796-16.363c4.254-3.954,8.945-5.932,14.073-5.932c5.153,0,8.903,1.65,11.25,4.95l0.818-3.764H348.508z
	 M324.29,64.61c0.109-0.573,0.164-1.104,0.164-1.596c0-2.618-1.173-3.927-3.518-3.927c-1.664,0-3.055,0.853-4.173,2.557
	c-1.118,1.705-1.677,3.444-1.677,5.216c0,2.51,1.199,3.764,3.6,3.764C321.549,70.623,323.417,68.619,324.29,64.61z M311.854,106.131
	c-3.572,0-5.359-1.814-5.359-5.441c0-2.4,0.838-4.568,2.516-6.504c1.678-1.936,3.688-2.904,6.034-2.904
	c1.69,0,3.021,0.518,3.988,1.554c0.968,1.036,1.452,2.386,1.452,4.05c0,2.427-0.852,4.575-2.556,6.443
	C316.224,105.197,314.199,106.131,311.854,106.131z"/>
<path fill="#ED1C24" d="M386.266,45.015l-8.632,15.136h-4.173l-5.44,25.731h-19.964l5.441-25.731h-7.363l34.608-34.158
	l-4.009,19.022H386.266z"/>
<g>
</g>
<g>
</g>
<g>
</g>
<g>
</g>
<g>
</g>
<g>
</g>
<g>
</g>
<g>
</g>
<g>
</g>
<g>
</g>
<g>
</g>
<g>
</g>
<g>
</g>
<g>
</g>
<g>
</g>
<g>
</g>
<g>
</g>
<g>
</g>
</svg>
