<svg xmlns="http://www.w3.org/2000/svg" class="svg" viewBox="0 0 455.005 455.005">
    <g class="svcolor-">
        <path d="M446.158 267.615c-5.622-3.103-12.756-2.42-19.574 1.87l-125.947 79.31c-3.505 2.208-4.557 6.838-2.35 10.343 2.208 3.505 6.838 4.557 10.343 2.35l125.947-79.31c2.66-1.674 4.116-1.55 4.33-1.43.22.12 1.097 1.284 1.097 4.427 0 8.45-6.27 19.81-13.42 24.31l-122.1 76.886c-6.49 4.09-12.426 5.213-16.283 3.085-3.855-2.13-6.066-7.75-6.066-15.423 0-19.438 13.896-44.61 30.345-54.967L451.5 231.523c2.18-1.373 3.503-3.77 3.503-6.347s-1.323-4.974-3.503-6.347L184.368 50.614c-2.442-1.538-5.55-1.538-7.993 0L35.66 139.223C15.664 151.815 0 180.188 0 203.818v4c0 23.63 15.664 52.004 35.66 64.595l209.292 131.79c3.505 2.208 8.136 1.155 10.343-2.35 2.207-3.504 1.155-8.135-2.35-10.342L43.653 259.72C28.12 249.94 15 226.172 15 207.818v-4c0-18.354 13.12-42.122 28.653-51.902l136.718-86.09 253.06 159.35-128.944 81.195c-20.945 13.19-37.352 42.91-37.352 67.662 0 13.495 4.907 23.636 13.818 28.555 3.58 1.976 7.526 2.956 11.71 2.956 6.23 0 12.984-2.176 19.816-6.48l122.1-76.884c11.454-7.214 20.426-23.468 20.426-37.005 0-8.056-3.224-14.456-8.846-17.56z" />
        <path d="M353.664 232.676c2.492 0 4.928-1.24 6.354-3.504 2.207-3.505 1.155-8.136-2.35-10.343l-173.3-109.127c-3.506-2.207-8.136-1.154-10.343 2.35-2.207 3.505-1.155 8.136 2.35 10.343l173.3 109.126c1.24.78 2.623 1.154 3.99 1.154zM323.68 252.58c2.497 0 4.938-1.246 6.36-3.517 2.202-3.51 1.14-8.138-2.37-10.338l-73.21-45.905c-3.51-2.202-8.14-1.14-10.338 2.37-2.2 3.51-1.14 8.138 2.37 10.338l73.21 45.905c1.24.777 2.616 1.147 3.978 1.147zM223.903 212.56c-3.513-2.195-8.14-1.125-10.334 2.39-2.195 3.513-1.125 8.14 2.39 10.333l73.772 46.062c1.236.77 2.608 1.14 3.965 1.14 2.5 0 4.947-1.252 6.37-3.53 2.193-3.514 1.123-8.14-2.39-10.334l-73.774-46.06zM145.21 129.33l-62.33 39.254c-2.188 1.377-3.512 3.783-3.504 6.368s1.345 4.983 3.54 6.348l74.335 46.22c1.214.753 2.587 1.13 3.96 1.13 1.418 0 2.834-.4 4.072-1.2l16.556-10.7c3.48-2.25 4.476-6.892 2.228-10.37-2.248-3.48-6.89-4.476-10.37-2.23l-12.562 8.12-60.12-37.38 48.2-30.355 59.245 37.147-6.908 4.464c-3.48 2.25-4.476 6.89-2.228 10.37 2.25 3.48 6.894 4.476 10.37 2.228l16.8-10.86c2.153-1.39 3.446-3.786 3.43-6.35-.02-2.563-1.345-4.94-3.517-6.302l-73.218-45.91c-2.44-1.53-5.543-1.527-7.98.008zM270.09 288.846c2.186-3.518 1.108-8.142-2.41-10.33l-74.337-46.22c-3.518-2.188-8.143-1.11-10.33 2.41-2.186 3.517-1.108 8.14 2.41 10.328l74.337 46.22c1.232.768 2.6 1.133 3.953 1.133 2.506 0 4.956-1.256 6.376-3.54zM53.527 192.864c-2.187 3.518-1.11 8.142 2.41 10.33l183.477 114.08c1.232.767 2.6 1.132 3.953 1.132 2.506 0 4.956-1.256 6.376-3.54 2.187-3.52 1.11-8.143-2.41-10.33L63.857 190.456c-3.518-2.19-8.142-1.11-10.33 2.408z" />
    </g>
</svg>