<svg xmlns="http://www.w3.org/2000/svg" viewBox="0 0 309.023 309.023" class="svg">
    <path class="svcolor-" d="M221.62 50.647c-.275-2.496-1.836-4.716-4.11-5.867l-59.61-30.2c-2.13-1.08-4.647-1.08-6.778 0L91.51 44.778c-2.52 1.277-4.11 3.863-4.11 6.69v50.314L4.28 142.215c-2.496 1.187-4.138 3.65-4.272 6.41C-.126 151.39 1.27 154 3.64 155.42l52.41 31.45v54.937c0 2.83 1.594 5.42 4.12 6.694l90.96 45.947c1.062.537 2.222.806 3.38.806 1.16 0 2.32-.27 3.383-.806l90.96-45.946c2.524-1.274 4.117-3.863 4.117-6.693V186.87l52.41-31.45c2.372-1.422 3.768-4.032 3.634-6.794-.134-2.76-1.775-5.224-4.27-6.41l-83.123-40.438v-51.13zm7.235 71.653l-7.233 3.632v-7.317l7.233 3.685zm-74.343-92.622l43.014 21.792-43.014 21.79-43.016-21.792 43.016-21.79zM87.4 118.616v7.314l-7.23-3.63 7.23-3.684zm-64.044 31.142l40.104-19.06 76.048 38.18-40.302 26.394-75.85-45.514zm123.656 125.805l-75.96-38.37V195.87l24.47 14.684c1.19.714 2.526 1.07 3.86 1.07 1.433 0 2.863-.41 4.11-1.227l43.52-28.503v93.67zm7.5-115.94L102.4 133.462V63.676l48.723 24.684c1.065.54 2.227.81 3.39.81 1.162 0 2.324-.27 3.39-.81l48.72-24.683v69.785l-52.11 26.162zm83.46 77.57l-75.96 38.37v-93.668l43.52 28.503c1.245.816 2.676 1.226 4.108 1.226 1.334 0 2.67-.355 3.86-1.07l24.47-14.684v41.323zm-28.158-41.92l-40.3-26.396 76.047-38.18 40.106 19.06-75.852 45.515z" />
</svg>