<svg xmlns="http://www.w3.org/2000/svg" class="svg" viewBox="0 0 501.715 501.715" width="512" height="512"><path class="svcolor-" d="M456.087 96.18l-101.053 8.288c-12.37-42.15-44.934-74.287-84.686-82.398C255.426 10.842 238.1 3.378 219.1.918V0h-13v.74c-64 6.716-114.338 60.153-116.07 125.472l-82.89 6.796L58.434 453.71l296.28 48.005 70.592-35.174 69.268-323.27-38.486-47.09zm-115.328 9.46l-20.52 1.682c-3.606-23.063-12.682-44.05-25.676-61.224 21.29 12.468 37.94 33.738 46.195 59.54zm-76.02-70.415c21.275 17.067 36.557 43.12 41.507 73.245L157.43 120.677c9.694-47.204 50.147-83.322 99.416-86.39 2.663.187 5.294.507 7.894.938zm-52.414-20.972c10.692.753 20.942 3.384 30.5 7.6-50.914 8.764-91.175 49.072-99.867 100.01L104 125.06c2.347-59.228 49.438-107.15 108.326-110.807zm146.79 468.96l-5.655-1.442 95.58-375.234 5.655 1.44-95.578 375.237z"/></svg>
