<svg xmlns="http://www.w3.org/2000/svg" width="40" height="40" viewBox="0 0 409.165 409.164"><path d="M204.583 216.67c50.664 0 91.74-48.074 91.74-107.377 0-82.237-41.074-107.377-91.74-107.377-50.668 0-91.74 25.14-91.74 107.377 0 59.303 41.073 107.378 91.74 107.378zM407.164 374.717L360.88 270.454c-2.117-4.77-5.836-8.728-10.465-11.138l-71.83-37.392c-1.584-.823-3.502-.663-4.926.415-20.317 15.365-44.204 23.487-69.077 23.487-24.877 0-48.762-8.122-69.078-23.488-1.428-1.08-3.346-1.24-4.93-.416L58.75 259.316c-4.63 2.41-8.346 6.365-10.465 11.138L2 374.717c-3.19 7.188-2.536 15.412 1.75 22.005 4.286 6.592 11.538 10.526 19.4 10.526h362.862c7.863 0 15.117-3.936 19.402-10.527 4.285-6.59 4.94-14.818 1.75-22.003z" /></svg>