<svg xmlns="http://www.w3.org/2000/svg" viewBox="0 0 200 200">
    <path d="M100 .14A99.86 99.86 0 0 0 3.362 75.15h42.186A59.915 59.915 0 0 1 100 40.085a59.915 59.915 0 0 1 54.437 35.063h42.15A99.86 99.86 0 0 0 100 .14zM.148 99.81a99.86 99.86 0 0 0-.007.19 99.86 99.86 0 0 0 .008.134zm199.704.056v.324a99.86 99.86 0 0 0 .007-.19 99.86 99.86 0 0 0-.008-.134zM3.412 124.853A99.86 99.86 0 0 0 100 199.86a99.86 99.86 0 0 0 96.637-75.007H154.45A59.915 59.915 0 0 1 100 159.916a59.915 59.915 0 0 1-54.438-35.063z" stroke="#000" stroke-width=".282" stroke-linejoin="round" />
    <g fill="#000" fill-rule="evenodd">
        <path d="M73.395 103.823c-.23.57-1.46 3.15-4.54 3.15-3.567 0-4.954-3.213-4.954-5.61 0-3.95 2.445-7.5 6.05-7.5 3.873 0 4.8 3.138 4.882 3.708h5.712c.337-2.313-1.352-9.404-10.376-9.404-6.61 0-11.882 5.73-11.882 13.396 0 6.27 3.603 11.105 10.285 11.105 8.316 0 10.56-7.096 10.85-8.844zM29.636 105.555c0-.363.088-1.047.377-2.49.295-1.44 4.318-21.626 4.318-21.626h-5.35L24.54 103.7c-.188.927-.27 1.864-.27 2.678 0 4.877 3.47 6.312 6.26 6.312.995 0 1.916-.17 2.138-.212.098-.483.936-4.68.972-4.866-.12.02-.702.065-1.39.065-1.99 0-2.614-.92-2.614-2.125zM105.636 88.238h-7.464l-9.584 9.398 3.227-16.245h-5.378l-6.13 30.81h5.392l1.485-7.49 3.316-2.86 4.58 10.35h5.995l-6.497-13.863zM.22 102.682c.452-2.206 4.243-21.286 4.243-21.286h10.204c7.4 0 9.216 4.47 9.216 7.188 0 6.004-5.215 7.598-5.855 7.81.59.212 3.98 1.675 3.98 6.392 0 5.123-4.347 9.42-11.09 9.42H7.842c-5.66 0-8.705-4.22-7.623-9.524zm15.968-.38c0-1.45-.86-3.283-4.67-3.283H6.58l-1.48 7.452h5.6c3.62 0 5.49-1.777 5.49-4.17zm1.83-12.413c0-1.506-1.043-2.792-3.62-2.792h-5.45l-1.24 6.222h5.685c3.063 0 4.625-1.604 4.625-3.43zM103.182 102.682c.455-2.206 4.246-21.286 4.246-21.286h10.2c7.4 0 9.223 4.47 9.223 7.188 0 6.004-5.214 7.598-5.858 7.81.59.212 3.984 1.675 3.984 6.392 0 5.123-4.347 9.42-11.09 9.42h-3.08c-5.654 0-8.695-4.22-7.624-9.524zm15.97-.38c0-1.45-.86-3.283-4.667-3.283h-4.94l-1.48 7.452h5.596c3.626 0 5.492-1.777 5.492-4.17zm1.833-12.413c0-1.506-1.047-2.792-3.617-2.792h-5.457l-1.23 6.222h5.68c3.063 0 4.625-1.604 4.625-3.43zM163.847 88.25c-5.706 0-9.584 3.68-10.9 10.578-.554 2.97-2.633 13.397-2.633 13.397h5.353s1.968-9.917 2.59-13.037c.815-4.074 2.802-5.468 5.472-5.468.86 0 1.408.11 1.694.16.15-.832.892-4.513 1.068-5.415-.573-.08-1.488-.214-2.645-.214zM182.054 121.39l17.95-33.14h-5.778l-8.247 15.597-1.934-15.612h-6.177c-7.075 0-10.745 3.526-12.05 10.264-.652 3.355-2.724 13.725-2.724 13.725h5.35s1.963-9.844 2.75-13.81c.75-3.856 3.378-5.044 6.212-4.385l1.13-5.66c.83 5.375 3.383 22.545 3.383 22.545l-5.598 10.476zM45.082 101.993c1.18-.185 4.633-.76 5.097-.828-.09.397-.222 1.03-.328 1.504-.623 2.896-3.336 4.76-6.328 4.76-1.906 0-3.028-1.12-3.028-2.453 0-1.088.928-2.387 4.586-2.984zm-1.997-6.24c.13-.23 1.506-2.545 4.935-2.545 2.132 0 3.223.852 3.223 1.872 0 1.45-2.148 1.828-5.864 2.41-6.398.994-10.44 3.156-10.44 8.176 0 3.56 2.714 7.026 7.543 7.026 4.017 0 6.11-2.628 6.295-2.83.016.634.093 1.58.15 2.338h5.538c-.2-1.038-.59-3.028.065-6.212.35-1.688 1.33-6.52 1.83-9.187.94-5.04-1.604-8.608-8.133-8.608-8.377 0-10.79 6.56-11.186 7.562zM142.44 105.032c-.19.468-1.485 2.442-4.4 2.442-4.188 0-5.142-3.86-5.038-4.924h16.313c.09-.436.456-2.015.456-3.64 0-5.606-3.494-10.744-10.553-10.744-6.456 0-11.628 5.898-11.628 12.915 0 6.778 3.742 11.587 10.364 11.587 8.182 0 10.385-6.978 10.59-7.635h-6.103zm-3.165-11.546c3.605 0 4.98 2.39 4.835 4.31H133.8c.27-1.222 1.99-4.31 5.475-4.31z" />
    </g>
    <g fill="#fff" stroke-width=".265" >
        <path d="M40.243 61.86l-10.266 1.208q-1.217.144-2.135.15l-.023.043q1.147.567 2.533 1.35l6.32 3.57-2.373 4.2-15.054-8.505 2.42-4.283 9.784-1.19q.19-.017.456-.047t.542-.053q.277-.024.53-.033.26-.02.444 0l.024-.042q-.498-.198-1.632-.838l-6.75-3.814 2.372-4.2 15.055 8.505zM56.744 42q-.338 1.07-1.455 2.72-1.127 1.64-2.416 2.84-3.328 3.095-6.682 3.12-3.362.014-6.155-2.988-1.872-2.013-2.416-4.42-.535-2.418.37-4.774.904-2.356 3.155-4.45 1.65-1.536 3.958-2.81l3.096 3.33q-1.244.415-2.187 1.012-.952.588-1.905 1.475-1.572 1.462-1.63 3.277-.047 1.807 1.49 3.458 1.47 1.58 3.075 1.75 1.615.16 3.02-1.145.652-.608.896-.966l-1.685-1.81-2.428 2.257-2.685-2.887 6.242-5.806zM73.097 24.717q1.138 2.343 1.03 4.687-.114 2.334-1.425 4.244-1.317 1.9-3.562 2.99-2.19 1.063-4.47.95-2.275-.13-4.142-1.434-1.872-1.316-2.973-3.583-1.153-2.375-1.066-4.763.086-2.388 1.408-4.303 1.317-1.926 3.638-3.053 2.235-1.084 4.477-.94 2.247.13 4.097 1.51 1.855 1.365 2.987 3.697zm-4.904 2.542q-.933-1.92-2.207-2.67-1.275-.748-2.555-.126-1.398.68-1.663 2.12-.265 1.443.678 3.385.92 1.897 2.207 2.586 1.297.684 2.632.037.813-.395 1.232-1.19.42-.792.346-1.855-.074-1.063-.67-2.29zM94.535 28.622q-1.982 1.128-4.75 1.61-2.72.472-4.873-.22-2.153-.702-3.53-2.433-1.37-1.746-1.805-4.252-.468-2.697.33-5.002.8-2.305 2.727-3.815 1.927-1.52 4.695-2.002 2.208-.384 4.368-.21l.824 4.74q-.787-.303-1.814-.37-1.028-.065-2.037.11-2.09.364-3.094 1.774-.99 1.41-.634 3.464.355 2.043 1.762 3.023 1.416.964 3.435.613 1.865-.324 3.6-1.605zM126.08 25.378q-.99 4.04-3.324 5.554-2.318 1.505-6.16.564-3.583-.88-4.966-3.29-1.368-2.422-.4-6.37l2.26-9.215 5.08 1.247-2.304 9.404q-.396 1.617-.014 2.642.397 1.015 1.52 1.29 1.137.28 1.923-.397.8-.673 1.192-2.278l2.334-9.52 5.095 1.248zM140.288 34.573l-2.975 5.216-4.524-2.582 2.938-5.153.998-12.507 5.195 2.963-1.07 5.65q-.107.578-.247.97-.13.398-.256.813l.042.024q.68-.876 1.145-1.304l4.345-3.894 4.787 2.73zM145.42 45.45l12-12.45 7.752 7.47-2.828 2.936-4.002-3.858-1.75 1.815 3.76 3.623-2.828 2.935-3.76-3.622L152 46.13l4.288 4.133-2.828 2.935zM163.007 67.535l4.132-9.475q.49-1.123.945-1.92l-.024-.04q-1.067.705-2.44 1.507l-6.27 3.658-2.432-4.166 14.935-8.714 2.48 4.25-3.907 9.048q-.08.173-.19.418-.107.245-.226.496-.12.25-.24.474-.114.235-.224.382l.025.042q.422-.33 1.547-.986l6.697-3.907 2.43 4.166-14.934 8.712z"/>
    </g>
    <g fill="#fff" stroke-width=".265" >
        <path d="M59.52 174.056q-1.265 1.82-3.183 2.49-1.904.68-4.122.122-2.217-.557-4.688-2.27-2.866-1.99-4.576-4.61l3.474-5.006q.563 1.636 1.59 3.12 1.034 1.474 2.23 2.305.906.627 1.623.654.727.014 1.16-.61.31-.446.284-.954-.002-.512-.308-1.158-.294-.638-1.303-2.093-3.233-4.752-.608-8.535 1.838-2.65 4.946-2.832 3.117-.196 6.506 2.155.955.663 1.704 1.296.75.632 1.32 1.197.583.575 1.546 1.715l-3.225 4.65q-1.432-2.862-3.66-4.408-.918-.636-1.717-.68-.8-.046-1.215.552-.397.574-.217 1.265.204.688 1.228 2.286 2.045 3.117 2.27 5.293.24 2.184-1.06 4.056zM81.222 171.46l-5.145 16.195-6.412-2.037 5.144-16.194-5.926-1.882 1.587-4.994 18.337 5.825-1.587 4.994zM113.586 179.452q.08 3.347-1.3 6.032-1.378 2.67-3.93 4.202-2.555 1.52-5.763 1.595-3.13.075-5.737-1.274-2.59-1.366-4.077-3.89-1.488-2.538-1.565-5.777-.08-3.395 1.296-6.142 1.38-2.746 3.947-4.28 2.57-1.55 5.886-1.63 3.192-.074 5.737 1.292 2.56 1.35 3.986 3.953 1.44 2.586 1.52 5.92zm-7.094.354q-.065-2.743-1.156-4.3-1.09-1.555-2.92-1.512-2 .048-3.08 1.593t-1.014 4.32q.065 2.712 1.2 4.205 1.153 1.492 3.06 1.447 1.162-.03 2.076-.733.913-.704 1.395-1.987.48-1.283.44-3.034zM135.586 183.98l-3.247-3.894q-.95-1.15-1.96-1.63-.996-.484-1.837-.166l-.246.094 2.765 7.307-6.263 2.372-7.87-20.792 8.322-3.15q4.365-1.652 6.98-1 2.627.63 3.708 3.486.812 2.146.143 4.057-.655 1.905-2.8 3.463l.022.058q1.473-.093 2.688.49 1.23.58 2.607 2.114l4.047 4.52zm-5.967-13.97q-.396-1.044-1.264-1.412-.87-.368-2.23.148l-1.292.49 1.8 4.754 1.13-.428q1.262-.477 1.762-1.478.5-1.002.093-2.075zM151.58 175.6l-13.728-17.487 10.89-8.55 3.235 4.122-5.62 4.414 2 2.547 5.28-4.145 3.236 4.12-5.28 4.147 2.02 2.572 6.024-4.73 3.235 4.122z" />
    </g>
</svg>